<svg id="svg" version="1.1" xmlns="http://www.w3.org/2000/svg" xmlns:xlink="http://www.w3.org/1999/xlink" width="400" height="400"><g id="svgg"><path id="path0" d="M196.917 60.097 C 196.458 60.130,194.921 60.240,193.500 60.340 C 158.440 62.813,128.516 89.475,121.585 124.417 C 120.134 131.731,120.120 132.043,120.047 157.519 L 119.982 179.956 118.700 180.065 C 105.631 181.180,96.055 189.711,93.706 202.333 C 93.469 203.602,93.436 209.147,93.385 255.254 L 93.328 306.758 80.091 329.921 C 72.811 342.660,66.910 353.104,66.978 353.128 C 67.046 353.153,78.835 350.228,93.176 346.628 L 119.250 340.083 201.083 339.988 C 290.320 339.884,283.598 339.962,287.071 338.997 C 297.196 336.185,304.804 327.543,306.360 317.083 C 306.691 314.859,306.691 205.141,306.360 202.917 C 304.471 190.223,294.574 181.197,281.300 180.065 L 280.018 179.956 279.952 157.519 C 279.885 134.363,279.872 133.917,279.158 128.833 C 274.205 93.590,246.593 65.945 , 211.250 60.847 C 207.234 60.267 , 199.839 59.880 , 196.917 60.097 M206.583 100.489 C 222.331 103.248 , 234.637 114.478 , 238.738 129.833 C 239.960 134.411 , 239.887 132.727 , 239.953 157.625 L 240.014 180.000 200.000 180.000 L 159.986 180.000 160.047 157.625 C 160.113 132.727 , 160.040 134.411 , 161.262 129.833 C 166.604 109.832 , 186.474 96.967 , 206.583 100.489 M164.067 220.417 C 165.399 220.900 , 165.533 220.966 , 167.750 222.244 C 168.667 222.772 , 169.642 223.333 , 169.917 223.490 C 170.192 223.647 , 170.929 224.070 , 171.556 224.429 C 172.182 224.789 , 173.044 225.278 , 173.472 225.515 C 174.535 226.106 , 175.194 226.487 , 176.722 227.393 C 177.440 227.818 , 178.085 228.167 , 178.155 228.167 C 178.224 228.167 , 178.417 228.317 , 178.583 228.500 C 178.749 228.683 , 178.951 228.833 , 179.031 228.833 C 179.357 228.833 , 182.455 230.983 , 182.957 231.558 C 184.434 233.247 , 185.154 236.272 , 184.479 237.950 C 184.376 238.207 , 184.237 238.567 , 184.170 238.750 C 183.964 239.311 , 182.714 241.721 , 182.139 242.667 C 181.944 242.987 , 181.531 243.722 , 181.222 244.300 C 180.913 244.877 , 180.458 245.665 , 180.210 246.050 C 179.961 246.435 , 179.675 246.900 , 179.572 247.083 C 178.911 248.266 , 178.590 248.803 , 178.314 249.192 C 177.500 250.339 , 178.026 251.313 , 181.183 254.514 C 184.278 257.652 , 185.921 258.960 , 191.116 262.423 C 191.868 262.924 , 192.550 263.333 , 192.632 263.333 C 192.714 263.333 , 192.917 263.483 , 193.083 263.667 C 193.249 263.850 , 193.454 264.000 , 193.538 264.000 C 193.623 264.000 , 194.192 264.324 , 194.804 264.719 C 196.873 266.056 , 199.920 267.633 , 203.516 269.226 C 206.820 270.690 , 211.457 272.087 , 215.874 272.948 C 216.416 273.054 , 217.124 272.394 , 217.670 271.274 C 217.856 270.894 , 218.100 270.432 , 218.212 270.248 C 218.568 269.664 , 220.565 266.175 , 221.036 265.313 C 221.284 264.858 , 221.625 264.282 , 221.793 264.034 C 221.960 263.786 , 222.244 263.292 , 222.424 262.937 C 222.975 261.844 , 224.958 259.931 , 226.083 259.407 C 228.394 258.330 , 231.058 258.783 , 234.417 260.824 C 234.875 261.102 , 235.512 261.460 , 235.833 261.620 C 236.154 261.779 , 236.790 262.155 , 237.246 262.455 C 237.702 262.755 , 238.165 263.000 , 238.274 263.000 C 238.383 263.000 , 238.497 263.056 , 238.528 263.125 C 238.558 263.194 , 238.883 263.408 , 239.250 263.602 C 240.506 264.265 , 242.417 265.383 , 242.917 265.748 C 243.192 265.948 , 243.679 266.238 , 244.000 266.391 C 244.321 266.544 , 244.996 266.927 , 245.500 267.243 C 246.004 267.559 , 246.679 267.947 , 247.000 268.106 C 248.490 268.843 , 251.000 271.022 , 251.000 271.578 C 251.000 271.690 , 251.126 272.035 , 251.280 272.344 C 251.689 273.163 , 252.022 275.254 , 251.826 275.769 C 251.738 276.000 , 251.665 276.390 , 251.662 276.636 C 251.658 277.094 , 250.880 278.741 , 249.757 280.667 C 249.410 281.262 , 248.977 282.012 , 248.795 282.333 C 248.613 282.654 , 248.406 282.992 , 248.334 283.083 C 248.167 283.297 , 245.830 287.422 , 245.501 288.083 C 242.570 293.975 , 233.371 296.804 , 221.833 295.361 C 220.871 295.240 , 219.708 295.106 , 219.250 295.063 C 218.792 295.019 , 218.267 294.921 , 218.083 294.845 C 217.900 294.768 , 217.150 294.615 , 216.417 294.504 C 214.665 294.239 , 210.460 293.288 , 209.750 292.996 C 209.567 292.920 , 209.229 292.822 , 209.000 292.778 C 208.319 292.646 , 206.442 292.154 , 206.083 292.013 C 205.900 291.940 , 204.887 291.603 , 203.833 291.263 C 202.018 290.678 , 201.394 290.439 , 200.266 289.898 C 200.000 289.771 , 199.698 289.667 , 199.595 289.667 C 199.439 289.667 , 196.592 288.543 , 195.417 288.017 C 192.188 286.574 , 188.070 284.510 , 185.750 283.171 C 185.383 282.959 , 184.746 282.600 , 184.333 282.372 C 183.921 282.144 , 183.433 281.835 , 183.250 281.684 C 182.734 281.261 , 181.858 280.667 , 181.749 280.667 C 181.695 280.667 , 180.787 280.085 , 179.731 279.375 C 178.675 278.665 , 177.663 278.000 , 177.483 277.898 C 177.302 277.796 , 176.983 277.553 , 176.775 277.357 C 176.566 277.160 , 176.345 277.000 , 176.283 277.000 C 176.145 277.000 , 174.448 275.731 , 173.061 274.590 C 172.499 274.128 , 171.563 273.375 , 170.982 272.917 C 167.846 270.444 , 163.163 265.939 , 159.890 262.250 C 158.791 261.010 , 158.039 260.068 , 155.767 257.083 C 154.245 255.084 , 152.059 251.643 , 151.427 250.250 C 151.094 249.517 , 150.749 248.785 , 150.661 248.625 C 150.304 247.977 , 150.182 247.712 , 149.848 246.853 C 149.657 246.359 , 149.500 245.852 , 149.500 245.726 C 149.500 245.599 , 149.428 245.365 , 149.340 245.206 C 148.541 243.757 , 148.026 239.010 , 148.477 237.250 C 148.571 236.883 , 148.715 236.318 , 148.798 235.994 C 148.988 235.252 , 149.827 233.529 , 150.581 232.333 C 150.899 231.829 , 151.335 231.079 , 151.551 230.667 C 151.767 230.254 , 152.193 229.504 , 152.498 229.000 C 152.803 228.496 , 153.313 227.633 , 153.630 227.083 C 153.948 226.533 , 154.348 225.840 , 154.520 225.542 C 154.693 225.244 , 154.977 224.746 , 155.153 224.437 C 157.320 220.611 , 160.567 219.147 , 164.067 220.417" stroke="none" fill="#fbfbfb" fill-rule="evenodd"></path><path id="path1" d="M62.667 0.262 C 61.796 0.386 , 60.633 0.533 , 60.083 0.588 C 56.674 0.926 , 47.842 3.205 , 45.225 4.422 C 44.936 4.557 , 44.632 4.667 , 44.549 4.667 C 44.016 4.667 , 36.914 8.101 , 34.833 9.364 C 34.512 9.559 , 34.100 9.802 , 33.917 9.904 C 31.529 11.232 , 26.193 15.129 , 23.758 17.323 C 22.903 18.093 , 18.093 22.903 , 17.323 23.758 C 15.092 26.234 , 11.281 31.461 , 9.855 34.000 C 9.614 34.429 , 9.419 34.765 , 8.745 35.917 C 7.768 37.583 , 4.667 44.145 , 4.667 44.545 C 4.667 44.630 , 4.558 44.936 , 4.425 45.225 C 4.111 45.910 , 3.505 47.610 , 3.341 48.268 C 3.271 48.552 , 3.098 49.115 , 2.958 49.518 C 1.972 52.353 , 0.932 57.276 , 0.339 61.917 L -0.003 64.583 -0.003 200.000 L -0.003 335.417 0.339 338.083 C 1.037 343.542 , 2.328 349.191 , 3.688 352.731 C 3.859 353.178 , 4.003 353.628 , 4.006 353.731 C 4.009 353.833 , 4.156 354.217 , 4.333 354.583 C 4.510 354.950 , 4.658 355.331 , 4.661 355.430 C 4.675 355.870 , 7.749 362.384 , 8.745 364.083 C 9.419 365.235 , 9.614 365.571 , 9.855 366.000 C 11.281 368.539 , 15.092 373.766 , 17.323 376.242 C 18.093 377.097 , 22.903 381.907 , 23.758 382.677 C 26.193 384.871 , 31.529 388.768 , 33.917 390.096 C 34.100 390.198 , 34.512 390.441 , 34.833 390.636 C 36.914 391.899 , 44.016 395.333 , 44.549 395.333 C 44.632 395.333 , 44.936 395.443 , 45.225 395.578 C 47.284 396.535 , 53.623 398.297 , 57.500 398.990 C 63.742 400.105 , 48.987 400.000 , 200.000 400.000 C 351.013 400.000 , 336.258 400.105 , 342.500 398.990 C 346.377 398.297 , 352.716 396.535 , 354.775 395.578 C 355.064 395.443 , 355.368 395.333 , 355.451 395.333 C 355.984 395.333 , 363.086 391.899 , 365.167 390.636 C 365.488 390.441 , 365.900 390.198 , 366.083 390.096 C 368.471 388.768 , 373.807 384.871 , 376.242 382.677 C 377.097 381.907 , 381.907 377.097 , 382.677 376.242 C 384.908 373.766 , 388.719 368.539 , 390.145 366.000 C 390.397 365.551 , 390.641 365.129 , 391.257 364.083 C 391.875 363.031 , 393.717 359.252 , 394.546 357.333 C 397.138 351.336 , 398.735 345.328 , 399.661 338.083 L 400.003 335.417 400.003 200.000 L 400.003 64.583 399.661 61.917 C 399.068 57.276 , 398.028 52.353 , 397.042 49.518 C 396.902 49.115 , 396.729 48.552 , 396.659 48.268 C 396.495 47.610 , 395.889 45.910 , 395.575 45.225 C 395.442 44.936 , 395.333 44.630 , 395.333 44.545 C 395.333 44.140 , 392.204 37.526 , 391.251 35.917 C 391.034 35.550 , 390.737 35.025 , 390.590 34.750 C 390.025 33.687 , 387.822 30.319 , 386.616 28.675 C 382.581 23.172 , 376.828 17.419 , 371.325 13.384 C 370.078 12.469 , 366.887 10.351 , 366.083 9.904 C 365.900 9.802 , 365.488 9.559 , 365.167 9.364 C 363.086 8.101 , 355.984 4.667 , 355.451 4.667 C 355.368 4.667 , 355.064 4.557 , 354.775 4.422 C 354.162 4.137 , 350.309 2.875 , 348.500 2.366 C 346.009 1.666 , 342.453 0.944 , 338.750 0.385 C 336.059 -0.021 , 65.483 -0.142 , 62.667 0.262 M209.750 60.486 C 246.944 65.549 , 274.337 92.935 , 279.531 130.250 C 279.898 132.887 , 279.903 133.181 , 279.958 156.433 L 280.014 179.950 282.049 180.049 C 293.516 180.606 , 303.299 189.159 , 306.201 201.167 L 306.583 202.750 306.583 260.000 L 306.583 317.250 306.201 318.833 C 303.594 329.618 , 296.497 336.744 , 285.583 339.533 L 284.083 339.917 202.000 340.000 L 119.917 340.083 93.374 346.735 C 78.775 350.393 , 66.785 353.341 , 66.730 353.285 C 66.674 353.230 , 72.636 342.677 , 79.979 329.835 L 93.329 306.485 93.373 254.534 L 93.417 202.583 93.800 201.083 C 96.894 188.978 , 106.509 180.604 , 117.952 180.049 L 119.987 179.950 120.042 156.433 C 120.102 130.525 , 120.053 131.864 , 121.178 125.750 C 124.840 105.841 , 135.337 88.760 , 151.667 76.139 C 163.248 67.188 , 179.100 61.162 , 193.833 60.108 C 196.876 59.891 , 207.172 60.135 , 209.750 60.486 M198.167 100.107 C 178.263 101.456 , 163.190 115.355 , 160.393 134.936 C 160.141 136.697 , 160.103 139.309 , 160.047 158.458 L 159.984 180.000 200.000 180.000 L 240.016 180.000 239.953 158.458 C 239.881 133.810 , 239.904 134.211 , 238.262 128.630 C 233.153 111.257 , 215.798 98.911 , 198.167 100.107 M160.167 220.473 C 159.083 220.678 , 156.500 222.431 , 156.500 222.962 C 156.500 223.046 , 156.362 223.240 , 156.194 223.392 C 156.025 223.545 , 155.672 224.081 , 155.408 224.585 C 155.145 225.088 , 154.870 225.500 , 154.798 225.500 C 154.726 225.500 , 154.667 225.618 , 154.667 225.762 C 154.667 225.906 , 154.442 226.350 , 154.167 226.750 C 153.892 227.150 , 153.667 227.517 , 153.667 227.565 C 153.667 227.614 , 153.254 228.341 , 152.750 229.181 C 152.246 230.022 , 151.833 230.812 , 151.833 230.938 C 151.833 231.064 , 151.769 231.167 , 151.690 231.167 C 151.611 231.167 , 151.312 231.607 , 151.025 232.145 C 150.739 232.682 , 150.391 233.217 , 150.252 233.332 C 150.113 233.447 , 150.000 233.642 , 150.000 233.765 C 150.000 233.889 , 149.861 234.237 , 149.692 234.539 C 148.709 236.289 , 148.329 243.066 , 149.184 243.594 C 149.266 243.645 , 149.333 243.908 , 149.333 244.179 C 149.333 244.450 , 149.402 244.801 , 149.487 244.961 C 149.571 245.120 , 149.800 245.700 , 149.996 246.250 C 150.353 247.255 , 150.648 247.929 , 151.675 250.083 C 152.671 252.174 , 155.280 256.007 , 158.365 259.917 C 159.607 261.489 , 159.864 261.785 , 162.188 264.319 C 163.969 266.260 , 165.145 267.381 , 169.657 271.432 C 170.360 272.063 , 171.412 272.923 , 172.838 274.034 C 173.156 274.282 , 174.054 274.984 , 174.833 275.593 C 175.612 276.203 , 176.362 276.744 , 176.500 276.797 C 176.637 276.849 , 177.050 277.133 , 177.417 277.427 C 178.109 277.982 , 180.384 279.490 , 182.052 280.500 C 182.581 280.821 , 183.218 281.252 , 183.466 281.458 C 183.714 281.664 , 183.974 281.833 , 184.045 281.833 C 184.116 281.833 , 184.477 282.025 , 184.848 282.259 C 186.961 283.593 , 190.149 285.229 , 195.344 287.646 C 195.763 287.841 , 196.157 288.000 , 196.221 288.000 C 196.285 288.000 , 196.655 288.143 , 197.043 288.318 C 197.432 288.493 , 198.670 288.989 , 199.795 289.422 C 200.919 289.854 , 201.880 290.274 , 201.929 290.354 C 201.979 290.434 , 202.204 290.500 , 202.429 290.500 C 202.654 290.500 , 202.968 290.566 , 203.127 290.646 C 203.286 290.727 , 203.717 290.882 , 204.083 290.991 C 204.450 291.100 , 204.900 291.251 , 205.083 291.328 C 205.267 291.404 , 205.867 291.594 , 206.417 291.750 C 207.532 292.066 , 208.376 292.315 , 209.000 292.511 C 209.229 292.583 , 209.829 292.732 , 210.333 292.842 C 210.838 292.951 , 211.400 293.098 , 211.583 293.169 C 212.111 293.371 , 213.646 293.667 , 214.170 293.667 C 214.432 293.667 , 214.686 293.730 , 214.735 293.808 C 214.783 293.886 , 215.518 294.048 , 216.369 294.167 C 217.220 294.286 , 218.104 294.455 , 218.333 294.542 C 219.280 294.899 , 224.956 295.393 , 227.833 295.368 C 231.988 295.332 , 236.288 294.699 , 238.292 293.829 C 238.498 293.740 , 238.873 293.583 , 239.125 293.481 C 239.636 293.273 , 239.956 293.113 , 240.760 292.661 C 242.197 291.854 , 244.291 289.725 , 245.098 288.250 C 245.780 287.005 , 246.612 285.471 , 246.951 284.833 C 247.170 284.421 , 247.646 283.607 , 248.008 283.025 C 248.370 282.443 , 248.667 281.944 , 248.667 281.917 C 248.667 281.889 , 248.963 281.391 , 249.326 280.808 C 253.037 274.846 , 251.978 270.816 , 245.917 267.836 C 245.458 267.611 , 244.858 267.266 , 244.583 267.070 C 244.308 266.874 , 243.840 266.610 , 243.542 266.483 C 243.244 266.356 , 243.000 266.195 , 243.000 266.126 C 243.000 266.057 , 242.920 266.000 , 242.822 266.000 C 242.724 266.000 , 242.316 265.775 , 241.917 265.500 C 241.517 265.225 , 241.146 265.000 , 241.092 265.000 C 241.038 265.000 , 240.690 264.808 , 240.319 264.574 C 239.398 263.993 , 237.583 262.960 , 235.917 262.069 C 235.458 261.824 , 235.046 261.577 , 235.000 261.520 C 234.879 261.370 , 232.386 260.055 , 231.177 259.504 C 229.770 258.862 , 226.925 259.130 , 225.641 260.025 C 225.398 260.195 , 225.146 260.333 , 225.083 260.333 C 224.724 260.333 , 222.000 263.805 , 222.000 264.263 C 222.000 264.315 , 221.775 264.684 , 221.500 265.083 C 221.225 265.483 , 221.000 265.928 , 221.000 266.072 C 221.000 266.216 , 220.934 266.333 , 220.853 266.333 C 220.772 266.333 , 220.660 266.465 , 220.605 266.625 C 220.550 266.785 , 220.313 267.217 , 220.079 267.583 C 219.844 267.950 , 219.609 268.381 , 219.557 268.542 C 219.504 268.702 , 219.395 268.833 , 219.314 268.833 C 219.233 268.833 , 219.167 268.983 , 219.167 269.167 C 219.167 269.350 , 219.092 269.500 , 219.000 269.500 C 218.908 269.500 , 218.833 269.612 , 218.833 269.750 C 218.833 269.887 , 218.758 270.000 , 218.667 270.000 C 218.575 270.000 , 218.500 270.150 , 218.500 270.333 C 218.500 270.517 , 218.443 270.667 , 218.374 270.667 C 218.305 270.667 , 218.140 270.910 , 218.009 271.207 C 217.355 272.685 , 216.835 273.167 , 215.894 273.167 C 215.413 273.167 , 214.979 273.101 , 214.930 273.022 C 214.881 272.942 , 214.482 272.830 , 214.045 272.774 C 212.677 272.597 , 210.763 272.212 , 210.250 272.011 C 210.067 271.939 , 209.242 271.668 , 208.417 271.408 C 207.592 271.148 , 206.842 270.891 , 206.750 270.836 C 206.658 270.781 , 206.283 270.641 , 205.917 270.524 C 205.226 270.304 , 205.036 270.230 , 203.917 269.746 C 199.483 267.828 , 195.984 265.969 , 193.056 263.973 C 192.674 263.713 , 192.281 263.500 , 192.181 263.500 C 192.081 263.500 , 192.000 263.425 , 192.000 263.333 C 192.000 263.242 , 191.921 263.167 , 191.825 263.167 C 191.729 263.167 , 191.223 262.879 , 190.700 262.528 C 188.315 260.924 , 186.884 259.918 , 186.500 259.578 C 186.271 259.375 , 185.995 259.180 , 185.886 259.146 C 185.697 259.086 , 184.996 258.514 , 183.359 257.083 C 181.573 255.522 , 178.356 252.084 , 178.137 251.502 C 178.074 251.336 , 177.943 251.151 , 177.845 251.091 C 177.590 250.933 , 177.624 249.659 , 177.892 249.346 C 178.016 249.202 , 178.297 248.746 , 178.517 248.333 C 178.737 247.921 , 178.961 247.546 , 179.015 247.500 C 179.115 247.415 , 179.764 246.298 , 180.660 244.667 C 180.937 244.162 , 181.362 243.412 , 181.605 243.000 C 182.549 241.398 , 183.278 240.020 , 183.942 238.583 C 184.409 237.572 , 184.389 234.288 , 183.911 233.583 C 183.724 233.308 , 183.474 232.889 , 183.355 232.652 C 182.953 231.849 , 181.687 230.668 , 180.585 230.067 C 179.186 229.305 , 178.538 228.920 , 178.250 228.680 C 178.067 228.527 , 177.692 228.295 , 177.417 228.164 C 177.142 228.034 , 176.603 227.718 , 176.220 227.463 C 175.837 227.209 , 175.479 227.000 , 175.425 227.000 C 175.371 227.000 , 175.009 226.799 , 174.622 226.554 C 174.234 226.308 , 173.542 225.907 , 173.083 225.663 C 172.063 225.119 , 171.338 224.702 , 170.250 224.035 C 169.792 223.755 , 169.079 223.340 , 168.667 223.115 C 168.254 222.890 , 167.504 222.469 , 167.000 222.181 C 166.496 221.892 , 165.671 221.464 , 165.167 221.230 C 164.662 220.996 , 164.123 220.738 , 163.967 220.656 C 163.596 220.462 , 160.912 220.332 , 160.167 220.473 " stroke="none" fill="#e40c14" fill-rule="evenodd"></path><path id="path2" d="M143.333 83.417 C 142.650 84.104 , 142.129 84.667 , 142.175 84.667 C 142.221 84.667 , 142.817 84.104 , 143.500 83.417 C 144.183 82.729 , 144.704 82.167 , 144.658 82.167 C 144.612 82.167 , 144.016 82.729 , 143.333 83.417 M255.333 82.213 C 255.333 82.238 , 255.915 82.819 , 256.625 83.504 L 257.917 84.750 256.671 83.458 C 255.514 82.259 , 255.333 82.091 , 255.333 82.213 M161.349 220.071 C 161.489 220.212 , 162.819 220.279 , 162.734 220.141 C 162.686 220.063 , 162.339 220.000 , 161.962 220.000 C 161.586 220.000 , 161.310 220.032 , 161.349 220.071 M156.909 222.208 L 156.250 222.917 156.958 222.258 C 157.348 221.895 , 157.667 221.577 , 157.667 221.550 C 157.667 221.423 , 157.522 221.550 , 156.909 222.208 M182.500 231.417 C 182.811 231.737 , 183.103 232.000 , 183.149 232.000 C 183.195 232.000 , 182.978 231.737 , 182.667 231.417 C 182.356 231.096 , 182.064 230.833 , 182.018 230.833 C 181.972 230.833 , 182.189 231.096 , 182.500 231.417 M183.500 257.083 C 183.811 257.404 , 184.103 257.667 , 184.149 257.667 C 184.195 257.667 , 183.978 257.404 , 183.667 257.083 C 183.356 256.762 , 183.064 256.500 , 183.018 256.500 C 182.972 256.500 , 183.189 256.762 , 183.500 257.083 M227.708 259.115 C 227.869 259.157 , 228.131 259.157 , 228.292 259.115 C 228.452 259.073 , 228.321 259.039 , 228.000 259.039 C 227.679 259.039 , 227.548 259.073 , 227.708 259.115 M165.833 268.250 C 166.144 268.571 , 166.436 268.833 , 166.482 268.833 C 166.528 268.833 , 166.311 268.571 , 166.000 268.250 C 165.689 267.929 , 165.397 267.667 , 165.351 267.667 C 165.305 267.667 , 165.522 267.929 , 165.833 268.250 M167.667 269.917 C 167.978 270.237 , 168.270 270.500 , 168.315 270.500 C 168.361 270.500 , 168.144 270.237 , 167.833 269.917 C 167.522 269.596 , 167.230 269.333 , 167.185 269.333 C 167.139 269.333 , 167.356 269.596 , 167.667 269.917 M221.958 295.284 C 222.165 295.324 , 222.502 295.324 , 222.708 295.284 C 222.915 295.245 , 222.746 295.212 , 222.333 295.212 C 221.921 295.212 , 221.752 295.245 , 221.958 295.284 M232.042 295.286 C 232.294 295.324 , 232.706 295.324 , 232.958 295.286 C 233.210 295.248 , 233.004 295.217 , 232.500 295.217 C 231.996 295.217 , 231.790 295.248 , 232.042 295.286 M226.714 295.623 C 227.245 295.657 , 228.070 295.656 , 228.548 295.623 C 229.026 295.589 , 228.592 295.562 , 227.583 295.562 C 226.575 295.563 , 226.184 295.590 , 226.714 295.623 " stroke="none" fill="#ed646d" fill-rule="evenodd"></path><path id="path3" d="M196.625 60.118 C 196.831 60.157 , 197.169 60.157 , 197.375 60.118 C 197.581 60.078 , 197.412 60.045 , 197.000 60.045 C 196.588 60.045 , 196.419 60.078 , 196.625 60.118 M202.794 60.118 C 203.001 60.158 , 203.301 60.156 , 203.460 60.115 C 203.620 60.073 , 203.450 60.040 , 203.083 60.042 C 202.717 60.044 , 202.586 60.078 , 202.794 60.118 M145.824 81.125 L 145.250 81.750 145.875 81.176 C 146.457 80.641 , 146.577 80.500 , 146.449 80.500 C 146.422 80.500 , 146.140 80.781 , 145.824 81.125 M254.000 81.083 C 254.311 81.404 , 254.603 81.667 , 254.649 81.667 C 254.695 81.667 , 254.478 81.404 , 254.167 81.083 C 253.856 80.762 , 253.564 80.500 , 253.518 80.500 C 253.472 80.500 , 253.689 80.762 , 254.000 81.083 M140.991 85.958 L 140.417 86.583 141.042 86.009 C 141.623 85.474 , 141.743 85.333 , 141.616 85.333 C 141.588 85.333 , 141.307 85.615 , 140.991 85.958 M258.833 85.917 C 259.144 86.237 , 259.436 86.500 , 259.482 86.500 C 259.528 86.500 , 259.311 86.237 , 259.000 85.917 C 258.689 85.596 , 258.397 85.333 , 258.351 85.333 C 258.305 85.333 , 258.522 85.596 , 258.833 85.917 M120.042 136.917 C 120.044 137.283 , 120.078 137.414 , 120.118 137.206 C 120.158 136.999 , 120.156 136.699 , 120.115 136.540 C 120.073 136.380 , 120.040 136.550 , 120.042 136.917 M279.875 136.917 C 279.877 137.283 , 279.911 137.414 , 279.951 137.206 C 279.991 136.999 , 279.990 136.699 , 279.948 136.540 C 279.906 136.380 , 279.874 136.550 , 279.875 136.917 M101.078 187.875 L 100.083 188.917 101.125 187.922 C 101.698 187.375 , 102.167 186.906 , 102.167 186.880 C 102.167 186.757 , 102.002 186.907 , 101.078 187.875 M298.750 187.833 C 299.294 188.383 , 299.777 188.833 , 299.823 188.833 C 299.869 188.833 , 299.461 188.383 , 298.917 187.833 C 298.372 187.283 , 297.890 186.833 , 297.844 186.833 C 297.798 186.833 , 298.206 187.283 , 298.750 187.833 M159.833 220.167 C 159.630 220.298 , 159.652 220.329 , 159.948 220.331 C 160.149 220.332 , 160.360 220.258 , 160.417 220.167 C 160.548 219.954 , 160.162 219.954 , 159.833 220.167 M162.750 220.167 C 162.807 220.258 , 163.017 220.332 , 163.218 220.331 C 163.515 220.329 , 163.537 220.298 , 163.333 220.167 C 163.005 219.954 , 162.619 219.954 , 162.750 220.167 M158.958 220.595 C 158.335 220.933 , 158.373 221.074 , 159.000 220.750 C 159.275 220.608 , 159.500 220.456 , 159.500 220.412 C 159.500 220.305 , 159.482 220.311 , 158.958 220.595 M165.410 221.094 C 165.865 221.320 , 166.312 221.578 , 166.402 221.669 C 166.493 221.759 , 166.645 221.833 , 166.742 221.832 C 166.981 221.831 , 166.044 221.208 , 165.355 220.910 C 164.466 220.525 , 164.501 220.644 , 165.410 221.094 M157.667 221.348 C 157.390 221.575 , 157.362 221.631 , 157.583 221.517 C 158.127 221.236 , 158.428 221.005 , 158.250 221.006 C 158.158 221.007 , 157.896 221.161 , 157.667 221.348 M167.757 222.345 C 167.865 222.520 , 169.167 223.218 , 169.167 223.101 C 169.167 223.061 , 168.827 222.839 , 168.413 222.607 C 167.998 222.375 , 167.703 222.258 , 167.757 222.345 M169.489 223.403 C 169.659 223.608 , 170.333 223.882 , 170.333 223.747 C 170.333 223.716 , 170.101 223.575 , 169.817 223.433 C 169.426 223.238 , 169.346 223.231 , 169.489 223.403 M155.511 223.817 C 155.322 224.084 , 155.165 224.365 , 155.163 224.442 C 155.161 224.520 , 155.013 224.771 , 154.833 225.000 C 154.654 225.229 , 154.506 225.490 , 154.504 225.580 C 154.502 225.670 , 154.688 225.468 , 154.917 225.131 C 155.146 224.794 , 155.333 224.469 , 155.333 224.410 C 155.333 224.350 , 155.488 224.084 , 155.678 223.817 C 155.868 223.551 , 155.985 223.333 , 155.939 223.333 C 155.894 223.333 , 155.701 223.551 , 155.511 223.817 M170.917 224.129 C 171.008 224.224 , 171.496 224.541 , 172.000 224.832 C 172.504 225.124 , 172.804 225.255 , 172.667 225.124 C 172.369 224.841 , 170.675 223.878 , 170.917 224.129 M174.202 226.083 C 174.540 226.313 , 174.876 226.502 , 174.949 226.504 C 175.023 226.506 , 175.271 226.654 , 175.500 226.833 C 175.729 227.013 , 175.990 227.161 , 176.080 227.163 C 176.170 227.165 , 175.968 226.979 , 175.631 226.750 C 175.294 226.521 , 174.957 226.332 , 174.884 226.330 C 174.810 226.328 , 174.563 226.179 , 174.333 226.000 C 174.104 225.821 , 173.843 225.672 , 173.753 225.670 C 173.663 225.668 , 173.865 225.854 , 174.202 226.083 M154.128 226.208 C 153.764 226.770 , 153.437 227.440 , 153.620 227.250 C 153.853 227.007 , 154.541 225.833 , 154.449 225.833 C 154.407 225.833 , 154.262 226.002 , 154.128 226.208 M176.583 227.415 C 176.956 227.725 , 178.012 228.295 , 177.750 228.046 C 177.658 227.958 , 177.283 227.718 , 176.917 227.512 C 176.550 227.306 , 176.400 227.263 , 176.583 227.415 M152.530 228.946 C 152.051 229.735 , 151.683 230.405 , 151.712 230.434 C 151.742 230.464 , 152.158 229.842 , 152.637 229.054 C 153.116 228.265 , 153.484 227.595 , 153.455 227.566 C 153.425 227.536 , 153.009 228.158 , 152.530 228.946 M178.333 228.504 C 178.563 228.686 , 178.938 228.935 , 179.167 229.057 C 179.396 229.180 , 179.865 229.450 , 180.208 229.657 C 180.552 229.864 , 180.833 229.999 , 180.833 229.958 C 180.833 229.857 , 179.178 228.833 , 179.015 228.833 C 178.943 228.833 , 178.749 228.683 , 178.583 228.500 C 178.417 228.317 , 178.200 228.168 , 178.099 228.170 C 177.999 228.172 , 178.104 228.323 , 178.333 228.504 M181.333 230.323 C 181.563 230.514 , 182.022 230.891 , 182.355 231.161 C 182.688 231.431 , 183.246 232.141 , 183.595 232.738 C 183.945 233.336 , 184.257 233.798 , 184.290 233.766 C 184.576 233.479 , 182.752 231.189 , 181.667 230.471 C 181.254 230.198 , 181.104 230.132 , 181.333 230.323 M150.353 232.697 C 149.853 233.499 , 149.488 234.210 , 149.547 234.269 C 149.582 234.304 , 149.714 234.127 , 149.841 233.875 C 149.968 233.623 , 150.213 233.206 , 150.387 232.949 C 150.561 232.691 , 150.673 232.451 , 150.637 232.415 C 150.600 232.378 , 150.473 232.505 , 150.353 232.697 M184.529 236.778 C 184.513 237.160 , 184.457 237.610 , 184.404 237.778 C 184.314 238.065 , 184.320 238.066 , 184.497 237.790 C 184.601 237.628 , 184.657 237.178 , 184.622 236.790 L 184.558 236.083 184.529 236.778 M148.604 236.590 C 148.547 236.739 , 148.506 236.986 , 148.514 237.139 C 148.522 237.292 , 148.595 237.195 , 148.675 236.925 C 148.833 236.399 , 148.777 236.139 , 148.604 236.590 M148.316 238.208 C 148.306 238.598 , 148.279 239.217 , 148.255 239.583 C 148.231 239.950 , 148.268 240.588 , 148.336 241.000 C 148.427 241.547 , 148.466 241.174 , 148.480 239.625 C 148.491 238.456 , 148.462 237.500 , 148.417 237.500 C 148.371 237.500 , 148.326 237.819 , 148.316 238.208 M183.197 240.441 C 182.986 240.762 , 182.850 241.113 , 182.894 241.221 C 182.948 241.353 , 182.978 241.344 , 182.987 241.192 C 182.994 241.069 , 183.158 240.746 , 183.352 240.474 C 183.545 240.203 , 183.675 239.953 , 183.641 239.919 C 183.607 239.885 , 183.407 240.120 , 183.197 240.441 M148.523 242.167 C 148.523 242.304 , 148.588 242.567 , 148.667 242.750 C 148.757 242.960 , 148.810 242.991 , 148.810 242.833 C 148.810 242.696 , 148.745 242.433 , 148.667 242.250 C 148.576 242.040 , 148.523 242.009 , 148.523 242.167 M180.844 244.711 C 180.541 245.282 , 180.368 245.675 , 180.460 245.583 C 180.700 245.342 , 181.527 243.805 , 181.455 243.733 C 181.422 243.699 , 181.147 244.140 , 180.844 244.711 M150.171 247.667 C 150.173 247.804 , 150.329 248.104 , 150.518 248.333 C 150.707 248.563 , 150.814 248.656 , 150.754 248.541 C 150.258 247.581 , 150.169 247.447 , 150.171 247.667 M178.605 248.542 L 178.306 249.083 178.649 248.667 C 178.954 248.297 , 179.089 248.000 , 178.953 248.000 C 178.927 248.000 , 178.770 248.244 , 178.605 248.542 M151.179 249.796 C 151.282 250.092 , 151.434 250.376 , 151.518 250.428 C 151.601 250.479 , 151.579 250.310 , 151.470 250.052 C 151.175 249.361 , 150.961 249.172 , 151.179 249.796 M177.855 250.167 C 177.837 250.680 , 178.342 251.833 , 178.585 251.833 C 178.634 251.833 , 178.545 251.636 , 178.387 251.395 C 178.229 251.154 , 178.049 250.648 , 177.988 250.270 L 177.875 249.583 177.855 250.167 M151.667 250.726 C 151.667 251.039 , 153.087 253.333 , 153.281 253.333 C 153.331 253.333 , 153.235 253.127 , 153.068 252.875 C 152.901 252.623 , 152.518 252.009 , 152.216 251.510 C 151.914 251.011 , 151.667 250.659 , 151.667 250.726 M179.959 253.417 C 181.320 254.931 , 183.002 256.636 , 182.997 256.494 C 182.996 256.451 , 182.008 255.404 , 180.803 254.167 C 179.400 252.727 , 179.097 252.457 , 179.959 253.417 M154.859 255.875 C 155.819 257.237 , 158.002 260.000 , 158.119 260.000 C 158.219 260.000 , 158.046 259.764 , 157.081 258.583 C 156.706 258.125 , 155.999 257.206 , 155.510 256.542 C 154.634 255.351 , 154.116 254.821 , 154.859 255.875 M183.880 257.227 C 184.319 257.641 , 184.994 258.223 , 185.380 258.519 C 186.397 259.297 , 185.790 258.711 , 184.333 257.507 C 183.527 256.840 , 183.366 256.741 , 183.880 257.227 M228.542 258.953 C 228.794 258.991 , 229.206 258.991 , 229.458 258.953 C 229.710 258.915 , 229.504 258.883 , 229.000 258.883 C 228.496 258.883 , 228.290 258.915 , 228.542 258.953 M186.537 259.422 C 186.786 259.684 , 187.020 259.865 , 187.056 259.824 C 187.093 259.784 , 186.889 259.569 , 186.603 259.348 L 186.083 258.945 186.537 259.422 M225.929 259.501 C 225.386 259.771 , 224.861 260.078 , 224.762 260.183 C 224.664 260.288 , 224.934 260.183 , 225.362 259.948 C 225.790 259.714 , 226.465 259.408 , 226.862 259.269 C 227.259 259.130 , 227.433 259.015 , 227.250 259.013 C 227.067 259.012 , 226.472 259.231 , 225.929 259.501 M230.447 259.120 C 230.738 259.156 , 231.713 259.553 , 232.614 260.002 C 233.514 260.451 , 234.100 260.700 , 233.917 260.556 C 233.267 260.044 , 230.861 259.000 , 230.392 259.027 C 229.929 259.053 , 229.930 259.055 , 230.447 259.120 M187.404 259.980 C 187.460 260.071 , 188.037 260.506 , 188.686 260.948 C 190.416 262.124 , 190.639 262.259 , 190.083 261.794 C 189.368 261.195 , 187.282 259.782 , 187.404 259.980 M158.354 260.458 C 159.068 261.369 , 161.426 263.953 , 162.727 265.250 L 164.231 266.750 162.915 265.333 C 162.191 264.554 , 161.519 263.842 , 161.421 263.750 C 161.324 263.658 , 160.577 262.815 , 159.762 261.875 C 158.946 260.935 , 158.245 260.167 , 158.203 260.167 C 158.160 260.167 , 158.229 260.298 , 158.354 260.458 M223.824 261.125 L 223.250 261.750 223.875 261.176 C 224.219 260.860 , 224.500 260.578 , 224.500 260.551 C 224.500 260.423 , 224.359 260.543 , 223.824 261.125 M235.089 261.342 C 235.139 261.424 , 235.459 261.622 , 235.799 261.782 C 236.139 261.942 , 236.728 262.282 , 237.108 262.536 C 237.487 262.791 , 237.862 262.999 , 237.941 262.997 C 238.119 262.993 , 236.657 262.054 , 235.707 261.561 C 235.316 261.359 , 235.038 261.261 , 235.089 261.342 M222.974 262.125 C 222.614 262.554 , 222.132 263.354 , 222.195 263.416 C 222.225 263.446 , 222.488 263.102 , 222.779 262.652 C 223.328 261.803 , 223.394 261.623 , 222.974 262.125 M192.946 263.711 C 193.519 264.170 , 194.921 264.944 , 194.787 264.727 C 194.734 264.641 , 194.356 264.404 , 193.947 264.200 C 193.538 263.995 , 193.111 263.717 , 192.998 263.581 C 192.885 263.445 , 192.721 263.333 , 192.633 263.333 C 192.546 263.333 , 192.686 263.503 , 192.946 263.711 M239.614 263.916 C 240.330 264.417 , 242.846 265.823 , 242.751 265.668 C 242.696 265.580 , 242.149 265.231 , 241.534 264.892 C 240.920 264.553 , 240.218 264.139 , 239.974 263.971 C 239.731 263.804 , 239.471 263.667 , 239.396 263.667 C 239.321 263.667 , 239.419 263.779 , 239.614 263.916 M221.423 264.598 C 221.267 264.835 , 221.178 265.067 , 221.224 265.113 C 221.271 265.160 , 221.429 264.966 , 221.575 264.682 C 221.899 264.055 , 221.810 264.006 , 221.423 264.598 M195.000 264.969 C 195.000 265.048 , 195.188 265.199 , 195.417 265.303 C 195.646 265.407 , 195.833 265.466 , 195.833 265.432 C 195.833 265.399 , 195.646 265.249 , 195.417 265.099 C 195.188 264.949 , 195.000 264.890 , 195.000 264.969 M196.000 265.575 C 196.000 265.621 , 196.225 265.774 , 196.500 265.917 C 196.775 266.059 , 197.000 266.138 , 197.000 266.092 C 197.000 266.046 , 196.775 265.892 , 196.500 265.750 C 196.225 265.608 , 196.000 265.529 , 196.000 265.575 M243.514 266.232 C 243.552 266.268 , 243.846 266.445 , 244.167 266.625 C 244.487 266.806 , 245.149 267.190 , 245.636 267.479 C 246.124 267.768 , 246.480 267.936 , 246.428 267.852 C 246.345 267.718 , 245.265 267.058 , 244.023 266.381 C 243.645 266.176 , 243.368 266.094 , 243.514 266.232 M165.477 268.049 C 167.575 270.053 , 170.796 272.859 , 171.917 273.660 C 172.554 274.116 , 171.823 273.450 , 170.170 272.070 C 169.301 271.344 , 167.636 269.869 , 166.471 268.792 C 165.305 267.715 , 164.318 266.833 , 164.278 266.833 C 164.238 266.833 , 164.778 267.380 , 165.477 268.049 M198.833 267.075 C 198.833 267.121 , 199.058 267.274 , 199.333 267.417 C 199.608 267.559 , 199.833 267.638 , 199.833 267.592 C 199.833 267.546 , 199.608 267.392 , 199.333 267.250 C 199.058 267.108 , 198.833 267.029 , 198.833 267.075 M200.405 267.944 C 201.079 268.309 , 202.000 268.687 , 202.000 268.598 C 202.000 268.514 , 200.180 267.663 , 200.022 267.673 C 199.964 267.677 , 200.136 267.799 , 200.405 267.944 M247.347 268.390 C 247.706 268.680 , 249.000 269.497 , 249.000 269.433 C 249.000 269.323 , 247.560 268.333 , 247.401 268.333 C 247.333 268.333 , 247.309 268.359 , 247.347 268.390 M203.192 269.232 C 203.898 269.601 , 206.364 270.525 , 206.439 270.450 C 206.477 270.412 , 206.037 270.211 , 205.462 270.003 C 204.887 269.796 , 204.121 269.485 , 203.760 269.313 C 203.007 268.954 , 202.527 268.886 , 203.192 269.232 M249.690 270.130 C 249.998 270.522 , 250.419 271.077 , 250.625 271.363 C 250.831 271.649 , 251.000 271.775 , 251.000 271.643 C 251.000 271.511 , 250.579 270.956 , 250.065 270.410 C 249.431 269.736 , 249.311 269.646 , 249.690 270.130 M217.832 270.875 C 217.650 271.173 , 217.501 271.485 , 217.501 271.569 C 217.500 271.759 , 217.523 271.728 , 217.964 270.958 C 218.403 270.193 , 218.290 270.122 , 217.832 270.875 M208.000 271.074 C 208.982 271.450 , 211.020 272.035 , 211.093 271.962 C 211.131 271.924 , 210.582 271.724 , 209.873 271.517 C 209.164 271.309 , 208.411 271.071 , 208.200 270.987 C 207.990 270.902 , 207.727 270.837 , 207.617 270.842 C 207.507 270.847 , 207.679 270.951 , 208.000 271.074 M216.891 272.426 C 216.601 272.751 , 216.445 272.991 , 216.543 272.958 C 216.716 272.900 , 217.606 271.832 , 217.480 271.834 C 217.445 271.835 , 217.180 272.101 , 216.891 272.426 M211.833 272.167 C 212.063 272.240 , 212.400 272.300 , 212.583 272.300 C 212.847 272.300 , 212.830 272.272 , 212.500 272.167 C 212.271 272.093 , 211.933 272.033 , 211.750 272.033 C 211.486 272.033 , 211.503 272.061 , 211.833 272.167 M251.241 272.625 C 251.373 272.969 , 251.513 273.400 , 251.554 273.583 C 251.624 273.898 , 251.629 273.897 , 251.647 273.562 C 251.667 273.205 , 251.231 272.000 , 251.082 272.000 C 251.039 272.000 , 251.110 272.281 , 251.241 272.625 M213.333 272.500 C 213.563 272.573 , 213.900 272.633 , 214.083 272.633 C 214.347 272.633 , 214.330 272.606 , 214.000 272.500 C 213.771 272.427 , 213.433 272.367 , 213.250 272.367 C 212.986 272.367 , 213.003 272.394 , 213.333 272.500 M172.917 274.424 C 173.786 275.224 , 176.184 277.038 , 176.266 276.957 C 176.300 276.922 , 176.022 276.674 , 175.647 276.405 C 175.272 276.136 , 174.355 275.443 , 173.608 274.864 C 172.861 274.285 , 172.550 274.087 , 172.917 274.424 M251.695 275.000 C 251.690 275.793 , 251.728 275.984 , 251.836 275.714 C 251.920 275.506 , 251.924 275.036 , 251.844 274.631 C 251.707 273.938 , 251.703 273.950 , 251.695 275.000 M251.520 276.500 C 251.507 276.637 , 251.454 276.938 , 251.403 277.167 C 251.323 277.527 , 251.336 277.543 , 251.499 277.287 C 251.604 277.124 , 251.656 276.824 , 251.617 276.620 C 251.578 276.417 , 251.534 276.362 , 251.520 276.500 M176.870 277.422 C 177.119 277.684 , 177.353 277.865 , 177.390 277.824 C 177.426 277.784 , 177.222 277.569 , 176.936 277.348 L 176.417 276.945 176.870 277.422 M177.742 277.986 C 177.863 278.183 , 181.679 280.711 , 181.746 280.639 C 181.774 280.608 , 180.864 279.966 , 179.724 279.211 C 178.583 278.456 , 177.691 277.905 , 177.742 277.986 M250.206 279.593 C 250.001 279.906 , 249.833 280.218 , 249.833 280.286 C 249.833 280.355 , 250.028 280.125 , 250.265 279.776 C 250.502 279.426 , 250.670 279.114 , 250.638 279.082 C 250.606 279.050 , 250.412 279.280 , 250.206 279.593 M249.480 280.875 C 249.371 281.081 , 249.173 281.438 , 249.040 281.667 C 248.808 282.066 , 248.810 282.070 , 249.078 281.750 C 249.411 281.355 , 249.877 280.500 , 249.760 280.500 C 249.715 280.500 , 249.589 280.669 , 249.480 280.875 M183.198 281.604 C 183.353 281.776 , 183.765 282.064 , 184.115 282.243 C 184.464 282.423 , 184.949 282.704 , 185.192 282.868 C 185.436 283.032 , 185.697 283.167 , 185.773 283.167 C 185.849 283.167 , 185.635 282.979 , 185.298 282.750 C 184.960 282.521 , 184.635 282.333 , 184.575 282.333 C 184.514 282.333 , 184.117 282.099 , 183.691 281.813 C 183.265 281.527 , 183.043 281.433 , 183.198 281.604 M248.507 282.549 C 247.950 283.435 , 247.639 284.000 , 247.709 284.000 C 247.815 284.000 , 248.858 282.302 , 248.792 282.236 C 248.762 282.206 , 248.633 282.347 , 248.507 282.549 M186.333 283.486 C 186.735 283.813 , 187.000 283.920 , 187.000 283.754 C 187.000 283.711 , 186.756 283.556 , 186.458 283.411 L 185.917 283.147 186.333 283.486 M187.167 283.919 C 187.167 283.962 , 187.423 284.129 , 187.737 284.290 C 190.536 285.730 , 191.742 286.314 , 191.798 286.258 C 191.834 286.222 , 191.125 285.839 , 190.223 285.407 C 189.321 284.975 , 188.471 284.534 , 188.333 284.426 C 188.024 284.185 , 187.167 283.812 , 187.167 283.919 M247.256 284.598 C 247.100 284.835 , 247.002 285.058 , 247.037 285.093 C 247.072 285.128 , 247.232 284.934 , 247.393 284.662 C 247.752 284.053 , 247.645 284.004 , 247.256 284.598 M246.418 286.096 C 246.172 286.516 , 245.998 286.887 , 246.032 286.921 C 246.065 286.954 , 246.301 286.611 , 246.556 286.157 C 247.139 285.120 , 247.021 285.067 , 246.418 286.096 M192.260 286.578 C 192.438 286.713 , 192.658 286.827 , 192.750 286.833 C 192.842 286.839 , 193.365 287.066 , 193.912 287.339 C 194.460 287.611 , 194.985 287.832 , 195.079 287.831 C 195.240 287.829 , 194.570 287.484 , 192.844 286.678 C 191.969 286.271 , 191.819 286.245 , 192.260 286.578 M245.720 287.375 C 245.389 287.894 , 244.874 288.994 , 244.999 288.917 C 245.145 288.827 , 246.009 287.167 , 245.910 287.167 C 245.879 287.167 , 245.793 287.260 , 245.720 287.375 M195.333 287.912 C 195.333 288.044 , 196.542 288.514 , 196.637 288.419 C 196.684 288.372 , 196.681 288.333 , 196.631 288.333 C 196.582 288.333 , 196.269 288.220 , 195.937 288.081 C 195.605 287.942 , 195.333 287.866 , 195.333 287.912 M196.833 288.562 C 196.833 288.706 , 199.525 289.685 , 199.712 289.609 C 199.847 289.554 , 199.832 289.522 , 199.667 289.513 C 199.529 289.505 , 198.865 289.274 , 198.191 288.999 C 196.935 288.488 , 196.833 288.455 , 196.833 288.562 M244.011 290.042 C 243.604 290.523 , 243.480 290.729 , 243.735 290.500 C 244.165 290.114 , 244.924 289.167 , 244.803 289.167 C 244.774 289.167 , 244.417 289.561 , 244.011 290.042 M200.082 289.831 C 200.139 289.924 , 200.261 290.000 , 200.351 290.000 C 200.442 290.000 , 200.827 290.150 , 201.206 290.333 C 201.965 290.700 , 202.149 290.747 , 201.908 290.512 C 201.665 290.274 , 199.964 289.640 , 200.082 289.831 M202.500 290.833 C 202.637 290.922 , 202.862 290.995 , 203.000 290.995 C 203.222 290.995 , 203.222 290.977 , 203.000 290.833 C 202.862 290.744 , 202.637 290.672 , 202.500 290.672 C 202.278 290.672 , 202.278 290.690 , 202.500 290.833 M204.750 291.573 C 205.025 291.708 , 205.404 291.822 , 205.592 291.826 C 205.780 291.830 , 206.005 291.895 , 206.092 291.970 C 206.293 292.143 , 207.995 292.561 , 208.094 292.461 C 208.135 292.421 , 207.737 292.287 , 207.209 292.166 C 206.682 292.044 , 206.175 291.892 , 206.083 291.829 C 205.992 291.765 , 205.692 291.671 , 205.417 291.618 C 205.142 291.566 , 204.767 291.479 , 204.583 291.426 C 204.400 291.372 , 204.475 291.439 , 204.750 291.573 M242.083 291.942 C 241.581 292.390 , 241.544 292.452 , 241.931 292.193 C 242.392 291.885 , 242.972 291.324 , 242.812 291.340 C 242.778 291.343 , 242.450 291.614 , 242.083 291.942 M210.681 293.227 C 210.719 293.259 , 210.975 293.337 , 211.250 293.398 C 211.615 293.480 , 211.683 293.464 , 211.500 293.341 C 211.275 293.189 , 210.513 293.082 , 210.681 293.227 M211.847 293.561 C 211.885 293.595 , 212.217 293.668 , 212.583 293.724 C 213.048 293.795 , 213.149 293.780 , 212.917 293.674 C 212.597 293.529 , 211.704 293.435 , 211.847 293.561 M239.301 293.588 C 239.165 293.723 , 237.328 294.362 , 236.583 294.533 C 234.809 294.939 , 234.737 294.961 , 235.155 294.981 C 235.571 295.001 , 235.759 294.953 , 237.750 294.328 C 238.929 293.958 , 239.902 293.519 , 239.569 293.507 C 239.470 293.503 , 239.349 293.539 , 239.301 293.588 M213.833 294.000 C 214.403 294.183 , 214.841 294.183 , 214.417 294.000 C 214.233 293.921 , 213.933 293.859 , 213.750 293.862 C 213.482 293.866 , 213.498 293.893 , 213.833 294.000 M215.833 294.423 C 216.429 294.546 , 217.142 294.644 , 217.417 294.640 C 217.692 294.637 , 217.392 294.535 , 216.750 294.414 C 216.108 294.292 , 215.396 294.194 , 215.167 294.196 C 214.938 294.198 , 215.237 294.300 , 215.833 294.423 M218.150 294.883 C 218.227 294.961 , 218.544 294.998 , 218.854 294.966 C 219.403 294.910 , 219.399 294.906 , 218.713 294.825 C 218.325 294.779 , 218.072 294.806 , 218.150 294.883 M220.250 295.165 C 220.568 295.303 , 221.797 295.398 , 221.653 295.273 C 221.615 295.241 , 221.208 295.170 , 220.750 295.117 C 220.214 295.055 , 220.036 295.073 , 220.250 295.165 M233.667 295.167 C 233.337 295.272 , 233.319 295.300 , 233.583 295.300 C 233.767 295.300 , 234.104 295.240 , 234.333 295.167 C 234.663 295.061 , 234.681 295.033 , 234.417 295.033 C 234.233 295.033 , 233.896 295.093 , 233.667 295.167 M223.250 295.503 C 223.908 295.646 , 225.954 295.726 , 225.819 295.604 C 225.781 295.569 , 225.037 295.499 , 224.167 295.449 C 223.068 295.386 , 222.788 295.402 , 223.250 295.503 M230.750 295.500 L 230.083 295.619 230.667 295.631 C 230.987 295.638 , 231.400 295.579 , 231.583 295.500 C 231.976 295.331 , 231.693 295.331 , 230.750 295.500 M298.745 332.208 L 297.750 333.250 298.792 332.255 C 299.365 331.708 , 299.833 331.239 , 299.833 331.214 C 299.833 331.090 , 299.669 331.241 , 298.745 332.208 " stroke="none" fill="#f4848c" fill-rule="evenodd"></path><path id="path4" d="M194.960 60.118 C 195.168 60.158 , 195.468 60.156 , 195.627 60.115 C 195.786 60.073 , 195.617 60.040 , 195.250 60.042 C 194.883 60.044 , 194.753 60.078 , 194.960 60.118 M204.460 60.118 C 204.668 60.158 , 204.968 60.156 , 205.127 60.115 C 205.286 60.073 , 205.117 60.040 , 204.750 60.042 C 204.383 60.044 , 204.253 60.078 , 204.460 60.118 M145.158 81.625 L 144.583 82.250 145.208 81.676 C 145.790 81.141 , 145.910 81.000 , 145.783 81.000 C 145.755 81.000 , 145.474 81.281 , 145.158 81.625 M254.667 81.583 C 254.978 81.904 , 255.270 82.167 , 255.315 82.167 C 255.361 82.167 , 255.144 81.904 , 254.833 81.583 C 254.522 81.262 , 254.230 81.000 , 254.185 81.000 C 254.139 81.000 , 254.356 81.262 , 254.667 81.583 M141.491 85.292 L 140.917 85.917 141.542 85.342 C 142.123 84.808 , 142.243 84.667 , 142.116 84.667 C 142.088 84.667 , 141.807 84.948 , 141.491 85.292 M258.333 85.250 C 258.644 85.571 , 258.936 85.833 , 258.982 85.833 C 259.028 85.833 , 258.811 85.571 , 258.500 85.250 C 258.189 84.929 , 257.897 84.667 , 257.851 84.667 C 257.805 84.667 , 258.022 84.929 , 258.333 85.250 M120.042 135.250 C 120.044 135.617 , 120.078 135.747 , 120.118 135.540 C 120.158 135.332 , 120.156 135.032 , 120.115 134.873 C 120.073 134.714 , 120.040 134.883 , 120.042 135.250 M279.872 135.333 C 279.872 135.654 , 279.906 135.785 , 279.948 135.625 C 279.990 135.465 , 279.990 135.202 , 279.948 135.042 C 279.906 134.881 , 279.872 135.012 , 279.872 135.333 M160.955 220.101 C 160.897 220.158 , 160.605 220.256 , 160.305 220.317 C 159.986 220.382 , 160.462 220.426 , 161.449 220.423 C 163.258 220.416 , 163.475 220.369 , 162.313 220.236 C 161.912 220.191 , 161.465 220.118 , 161.321 220.075 C 161.177 220.032 , 161.012 220.043 , 160.955 220.101 M157.569 221.762 L 156.917 222.357 157.625 221.817 C 158.272 221.324 , 158.430 221.167 , 158.278 221.167 C 158.247 221.167 , 157.928 221.435 , 157.569 221.762 M166.514 221.899 C 166.723 222.096 , 167.842 222.650 , 167.759 222.515 C 167.705 222.427 , 167.425 222.237 , 167.138 222.094 C 166.638 221.845 , 166.366 221.759 , 166.514 221.899 M169.405 223.482 C 169.495 223.627 , 171.229 224.683 , 171.583 224.809 C 171.865 224.909 , 171.130 224.401 , 170.197 223.851 C 169.710 223.564 , 169.353 223.398 , 169.405 223.482 M172.167 225.152 C 172.396 225.339 , 172.658 225.493 , 172.750 225.494 C 172.928 225.495 , 172.627 225.264 , 172.083 224.983 C 171.862 224.869 , 171.890 224.925 , 172.167 225.152 M154.272 226.375 L 153.972 226.917 154.316 226.500 C 154.620 226.130 , 154.756 225.833 , 154.619 225.833 C 154.593 225.833 , 154.437 226.077 , 154.272 226.375 M174.926 226.745 C 175.104 226.879 , 175.311 226.992 , 175.387 226.995 C 175.462 226.998 , 175.850 227.225 , 176.250 227.500 C 176.650 227.775 , 177.037 228.000 , 177.110 228.000 C 177.184 228.000 , 176.976 227.818 , 176.649 227.596 C 175.476 226.799 , 174.097 226.118 , 174.926 226.745 M183.506 232.917 C 183.507 233.008 , 183.661 233.271 , 183.848 233.500 C 184.075 233.777 , 184.131 233.805 , 184.017 233.583 C 183.736 233.040 , 183.505 232.738 , 183.506 232.917 M184.250 236.000 C 184.250 237.001 , 184.301 237.692 , 184.363 237.535 C 184.426 237.378 , 184.477 236.688 , 184.477 236.000 C 184.477 235.313 , 184.426 234.622 , 184.363 234.465 C 184.301 234.308 , 184.250 234.999 , 184.250 236.000 M148.853 236.528 C 148.842 236.681 , 148.790 236.943 , 148.737 237.111 C 148.647 237.401 , 148.651 237.401 , 148.832 237.120 C 148.937 236.956 , 148.989 236.694 , 148.947 236.536 C 148.879 236.278 , 148.870 236.278 , 148.853 236.528 M148.563 239.500 C 148.563 240.554 , 148.590 240.985 , 148.623 240.458 C 148.656 239.931 , 148.656 239.069 , 148.623 238.542 C 148.590 238.015 , 148.563 238.446 , 148.563 239.500 M148.768 242.417 C 148.905 243.029 , 149.001 243.163 , 148.997 242.736 C 148.996 242.560 , 148.919 242.304 , 148.826 242.167 C 148.702 241.984 , 148.687 242.052 , 148.768 242.417 M150.336 247.583 C 150.335 247.768 , 151.153 249.148 , 151.161 248.975 C 151.164 248.916 , 150.980 248.541 , 150.752 248.142 C 150.524 247.743 , 150.337 247.492 , 150.336 247.583 M177.867 249.367 C 177.757 249.477 , 177.675 249.720 , 177.686 249.908 C 177.705 250.243 , 177.707 250.243 , 177.787 249.917 C 177.832 249.733 , 177.945 249.490 , 178.038 249.375 C 178.254 249.109 , 178.130 249.103 , 177.867 249.367 M178.174 251.619 C 178.178 251.691 , 178.490 252.088 , 178.868 252.500 C 179.583 253.281 , 179.431 252.986 , 178.629 252.036 C 178.375 251.735 , 178.170 251.547 , 178.174 251.619 M153.078 252.823 C 153.217 253.092 , 153.407 253.359 , 153.499 253.416 C 153.592 253.473 , 153.510 253.253 , 153.317 252.927 C 152.895 252.211 , 152.723 252.137 , 153.078 252.823 M179.917 253.654 C 180.406 254.247 , 182.339 256.185 , 182.917 256.663 C 183.192 256.890 , 183.004 256.661 , 182.500 256.153 C 180.528 254.168 , 179.598 253.268 , 179.917 253.654 M153.945 254.169 C 154.108 254.446 , 154.416 254.877 , 154.629 255.128 C 154.842 255.378 , 154.740 255.152 , 154.401 254.625 C 153.760 253.626 , 153.428 253.295 , 153.945 254.169 M155.333 256.167 C 155.529 256.442 , 155.727 256.667 , 155.773 256.667 C 155.819 256.667 , 155.696 256.442 , 155.500 256.167 C 155.304 255.892 , 155.106 255.667 , 155.061 255.667 C 155.015 255.667 , 155.138 255.892 , 155.333 256.167 M156.413 257.625 C 156.731 258.060 , 157.262 258.717 , 157.594 259.083 C 158.109 259.654 , 158.132 259.666 , 157.754 259.167 C 157.511 258.846 , 157.014 258.190 , 156.651 257.708 C 156.287 257.227 , 155.954 256.833 , 155.912 256.833 C 155.869 256.833 , 156.094 257.190 , 156.413 257.625 M185.083 258.553 C 185.450 258.884 , 185.812 259.157 , 185.888 259.160 C 185.964 259.164 , 185.814 258.996 , 185.554 258.788 C 184.672 258.078 , 184.415 257.950 , 185.083 258.553 M228.794 259.118 C 229.001 259.158 , 229.301 259.156 , 229.460 259.115 C 229.620 259.073 , 229.450 259.040 , 229.083 259.042 C 228.717 259.044 , 228.586 259.078 , 228.794 259.118 M186.327 259.405 C 186.460 259.568 , 187.023 259.997 , 187.577 260.357 C 188.568 261.003 , 188.352 260.802 , 186.848 259.680 C 186.427 259.366 , 186.193 259.243 , 186.327 259.405 M225.417 260.000 C 225.142 260.182 , 224.992 260.330 , 225.083 260.329 C 225.250 260.326 , 226.157 259.676 , 226.000 259.671 C 225.954 259.670 , 225.692 259.818 , 225.417 260.000 M233.500 260.652 C 233.729 260.839 , 233.992 260.993 , 234.083 260.994 C 234.262 260.995 , 233.960 260.764 , 233.417 260.483 C 233.195 260.369 , 233.223 260.425 , 233.500 260.652 M189.583 261.743 C 190.128 262.204 , 191.667 263.195 , 191.667 263.085 C 191.667 263.048 , 191.085 262.635 , 190.375 262.169 C 189.665 261.702 , 189.308 261.511 , 189.583 261.743 M223.179 262.121 C 222.897 262.463 , 222.667 262.817 , 222.667 262.908 C 222.667 263.000 , 222.791 262.889 , 222.943 262.662 C 223.095 262.435 , 223.370 262.081 , 223.555 261.875 C 223.740 261.669 , 223.846 261.500 , 223.791 261.500 C 223.736 261.500 , 223.460 261.780 , 223.179 262.121 M236.746 262.494 C 236.856 262.672 , 237.862 263.193 , 237.942 263.114 C 237.971 263.084 , 237.694 262.898 , 237.324 262.701 C 236.955 262.504 , 236.695 262.411 , 236.746 262.494 M161.907 264.208 C 162.720 265.102 , 163.419 265.833 , 163.461 265.833 C 163.565 265.833 , 161.289 263.322 , 160.816 262.917 C 160.602 262.733 , 161.093 263.315 , 161.907 264.208 M195.667 265.652 C 195.896 265.839 , 196.158 265.993 , 196.250 265.994 C 196.428 265.995 , 196.127 265.764 , 195.583 265.483 C 195.362 265.369 , 195.390 265.425 , 195.667 265.652 M242.167 265.652 C 242.396 265.839 , 242.658 265.993 , 242.750 265.994 C 242.928 265.995 , 242.627 265.764 , 242.083 265.483 C 241.862 265.369 , 241.890 265.425 , 242.167 265.652 M164.250 266.644 C 164.617 267.038 , 165.142 267.517 , 165.417 267.708 C 166.000 268.111 , 165.924 268.031 , 164.583 266.826 C 163.735 266.063 , 163.685 266.035 , 164.250 266.644 M197.681 266.732 C 197.868 266.909 , 199.047 267.508 , 199.101 267.455 C 199.135 267.421 , 198.856 267.230 , 198.482 267.030 C 197.862 266.699 , 197.504 266.566 , 197.681 266.732 M245.500 267.587 C 245.500 267.617 , 245.733 267.758 , 246.017 267.900 C 246.407 268.095 , 246.487 268.102 , 246.345 267.930 C 246.174 267.725 , 245.500 267.451 , 245.500 267.587 M166.500 268.750 C 166.811 269.071 , 167.103 269.333 , 167.149 269.333 C 167.195 269.333 , 166.978 269.071 , 166.667 268.750 C 166.356 268.429 , 166.064 268.167 , 166.018 268.167 C 165.972 268.167 , 166.189 268.429 , 166.500 268.750 M249.659 270.417 C 250.864 271.757 , 250.945 271.833 , 250.541 271.250 C 250.350 270.975 , 249.872 270.450 , 249.477 270.083 C 248.869 269.518 , 248.896 269.569 , 249.659 270.417 M169.583 271.500 C 169.941 271.867 , 170.272 272.167 , 170.318 272.167 C 170.363 272.167 , 170.108 271.867 , 169.750 271.500 C 169.392 271.133 , 169.062 270.833 , 169.016 270.833 C 168.970 270.833 , 169.225 271.133 , 169.583 271.500 M217.701 271.509 C 217.504 271.878 , 217.411 272.138 , 217.494 272.087 C 217.672 271.977 , 218.193 270.971 , 218.114 270.892 C 218.084 270.862 , 217.898 271.140 , 217.701 271.509 M208.917 271.589 C 209.192 271.715 , 209.567 271.817 , 209.750 271.815 C 209.933 271.813 , 209.746 271.705 , 209.333 271.575 C 208.408 271.283 , 208.259 271.288 , 208.917 271.589 M211.500 272.326 C 211.637 272.419 , 211.894 272.496 , 212.069 272.497 C 212.496 272.501 , 212.363 272.405 , 211.750 272.268 C 211.385 272.187 , 211.317 272.202 , 211.500 272.326 M213.250 272.667 C 213.433 272.745 , 213.733 272.808 , 213.917 272.805 C 214.185 272.801 , 214.168 272.774 , 213.833 272.667 C 213.263 272.484 , 212.825 272.484 , 213.250 272.667 M251.190 273.000 C 251.190 273.137 , 251.255 273.400 , 251.333 273.583 C 251.424 273.793 , 251.477 273.824 , 251.477 273.667 C 251.477 273.529 , 251.412 273.267 , 251.333 273.083 C 251.243 272.873 , 251.190 272.842 , 251.190 273.000 M171.560 273.129 C 171.692 273.342 , 172.667 274.064 , 172.667 273.948 C 172.667 273.907 , 172.391 273.663 , 172.055 273.406 C 171.718 273.150 , 171.496 273.025 , 171.560 273.129 M173.583 274.745 C 173.858 274.986 , 174.308 275.336 , 174.583 275.522 L 175.083 275.861 174.583 275.422 C 174.308 275.181 , 173.858 274.831 , 173.583 274.644 L 173.083 274.306 173.583 274.745 M251.542 275.250 C 251.544 275.617 , 251.578 275.747 , 251.618 275.540 C 251.658 275.332 , 251.656 275.032 , 251.615 274.873 C 251.573 274.714 , 251.540 274.883 , 251.542 275.250 M251.271 276.590 C 251.213 276.739 , 251.173 276.986 , 251.181 277.139 C 251.189 277.292 , 251.261 277.195 , 251.342 276.925 C 251.499 276.399 , 251.444 276.139 , 251.271 276.590 M177.083 277.333 C 177.429 277.608 , 177.756 277.833 , 177.808 277.833 C 177.962 277.833 , 176.765 276.848 , 176.602 276.840 C 176.521 276.836 , 176.737 277.058 , 177.083 277.333 M180.251 279.501 C 180.362 279.681 , 181.333 280.222 , 181.333 280.104 C 181.333 280.065 , 181.066 279.875 , 180.740 279.683 C 180.414 279.490 , 180.193 279.408 , 180.251 279.501 M183.580 281.661 C 183.689 281.838 , 184.696 282.360 , 184.775 282.281 C 184.805 282.251 , 184.527 282.065 , 184.158 281.868 C 183.788 281.671 , 183.528 281.578 , 183.580 281.661 M189.333 284.917 C 189.563 285.048 , 189.825 285.155 , 189.917 285.155 C 190.008 285.155 , 189.896 285.048 , 189.667 284.917 C 189.438 284.786 , 189.175 284.678 , 189.083 284.678 C 188.992 284.678 , 189.104 284.786 , 189.333 284.917 M192.333 286.385 C 192.887 286.672 , 193.333 286.838 , 193.333 286.757 C 193.333 286.657 , 192.307 286.167 , 192.099 286.168 C 191.999 286.168 , 192.104 286.266 , 192.333 286.385 M194.754 287.464 C 195.019 287.691 , 195.863 288.016 , 195.761 287.851 C 195.709 287.768 , 195.425 287.615 , 195.129 287.512 C 194.833 287.409 , 194.664 287.387 , 194.754 287.464 M242.833 291.038 C 242.237 291.600 , 241.975 291.903 , 242.250 291.711 C 242.734 291.373 , 244.145 289.992 , 243.992 290.007 C 243.951 290.011 , 243.429 290.475 , 242.833 291.038 M203.667 291.001 C 204.717 291.353 , 205.203 291.481 , 205.103 291.381 C 204.940 291.218 , 203.787 290.837 , 203.500 290.850 C 203.362 290.857 , 203.438 290.925 , 203.667 291.001 M212.500 293.492 C 212.637 293.585 , 212.894 293.663 , 213.069 293.664 C 213.496 293.668 , 213.363 293.572 , 212.750 293.435 C 212.385 293.353 , 212.317 293.369 , 212.500 293.492 M214.000 293.780 C 214.229 293.817 , 214.574 293.926 , 214.767 294.022 C 214.959 294.118 , 215.297 294.162 , 215.517 294.121 C 215.842 294.059 , 215.818 294.041 , 215.385 294.023 C 215.092 294.010 , 214.807 293.925 , 214.750 293.833 C 214.693 293.742 , 214.408 293.677 , 214.115 293.689 C 213.673 293.708 , 213.654 293.724 , 214.000 293.780 M216.500 294.315 C 217.085 294.499 , 218.660 294.679 , 218.250 294.515 C 218.067 294.441 , 217.504 294.337 , 217.000 294.283 C 216.465 294.225 , 216.257 294.238 , 216.500 294.315 M236.583 294.333 C 236.122 294.451 , 236.116 294.462 , 236.500 294.478 C 236.729 294.487 , 237.029 294.422 , 237.167 294.333 C 237.450 294.150 , 237.304 294.150 , 236.583 294.333 M220.181 294.893 C 220.219 294.927 , 220.588 294.998 , 221.000 295.053 C 221.501 295.119 , 221.639 295.103 , 221.417 295.004 C 221.098 294.863 , 220.036 294.768 , 220.181 294.893 M233.500 295.008 C 233.317 295.131 , 233.385 295.147 , 233.750 295.065 C 234.363 294.928 , 234.496 294.832 , 234.069 294.836 C 233.894 294.837 , 233.637 294.915 , 233.500 295.008 M223.750 295.341 C 224.208 295.412 , 224.883 295.467 , 225.250 295.462 C 225.830 295.454 , 225.798 295.437 , 225.000 295.326 C 224.496 295.257 , 223.821 295.202 , 223.500 295.205 C 223.033 295.210 , 223.082 295.237 , 223.750 295.341 M230.417 295.338 C 230.194 295.436 , 230.333 295.452 , 230.833 295.386 C 231.246 295.332 , 231.615 295.260 , 231.653 295.227 C 231.798 295.101 , 230.735 295.197 , 230.417 295.338 " stroke="none" fill="#e93640" fill-rule="evenodd"></path></g></svg>